{"title":"Bajatey Raho 2013 DVDRip x264 Hindi ESubs - ViZNU [P2PDL]","uid":8890459,"size":425350477,"categoryP":"video","categoryS":"movies","magnet":"?xt=urn:btih:1257fb2fb6335ef54ff29e06f088b8202a8743d8&amp;dn=Bajatey+Raho+2013+DVDRip+x264+Hindi+ESubs+-+ViZNU+%5BP2PDL%5D&amp;tr=udp%3A%2F%2Ftracker.openbittorrent.com%3A80&amp;tr=udp%3A%2F%2Fopen.demonii.com%3A1337&amp;tr=udp%3A%2F%2Ftracker.coppersurfer.tk%3A6969&amp;tr=udp%3A%2F%2Fexodus.desync.com%3A6969","seeders":1,"leechers":0,"uploader":"ValidusVyto","files":-1,"time":1378570982,"description":"_______ Visit us at our Semi Public Bittorrent Community ________\n  &lt;a href=&quot;\nhttp://p2pdl.com&quot; rel=&quot;nofollow&quot; target=&quot;_NEW&quot;&gt;\nhttp://p2pdl.com&lt;/a&gt;  _____________________________ &lt;a href=&quot; http://p2pdl.com&quot; rel=&quot;nofollow&quot; target=&quot;_NEW&quot;&gt; http://p2pdl.com&lt;/a&gt;\n\n\n\nBajatey Raho 2013 DVDRip x264 Hindi ESubs - ViZNU\n\n\nGenre: Comedy | Drama | Thriller\nPlot: Surviving family members and friends of a man who was conned by the cunning\nbusinessman Sabbarwahl string together a series of their own cons in an attempt to\nbring him down.\nDirector: Shashant Shah\nStars: Tusshar Kapoor, Vinay Pathak, Ranvir Shorey.\nRated: Not Rated\n\n\nInfo: &lt;a href=&quot;\nhttp://www.imdb.com/title/tt2848824/&quot; rel=&quot;nofollow&quot; target=&quot;_NEW&quot;&gt;\nhttp://www.imdb.com/title/tt2848824/&lt;/a&gt;\n\nTrailer:\n\n\nFormat                         : MPEG-4\nFile size                      : 401 MiB\nDuration                       : 1h 41mn\nOverall bit rate mode          : Variable\nOverall bit rate               : 550 Kbps\n\nVideo\nFormat                         : AVC\nBit rate                       : 506 Kbps\nWidth                          : 720 pixels\nHeight                         : 304 pixels\nDisplay aspect ratio           : 2.35:1\nFrame rate mode                : Constant\nFrame rate                     : 29.970 fps\nBit depth                      : 10 bits\nStream size                    : 369 MiB (92%)\nWriting library                : x264 core 138 r2358\n\nAudio\nFormat                         : AAC\nBit rate mode                  : Variable\nBit rate                       : 39.9 Kbps\nChannel(s)                     : 2 channels\nChannel positions              : Front: L R\nSampling rate                  : 48.0 KHz\nStream size                    : 29.1 MiB (7%)\nLanguage                       : Hindi\n\nSubtitle                       : Yes (English)\n\t\nSource                         : NTSC DVD5\n &lt;a href=&quot;\nhttp://ultraimg.com/images/BTsUl.png&quot; rel=&quot;nofollow&quot; target=&quot;_NEW&quot;&gt;\nhttp://ultraimg.com/images/BTsUl.png&lt;/a&gt; &lt;a href=&quot;\nhttp://ultraimg.com/images/3mT4H.png&quot; rel=&quot;nofollow&quot; target=&quot;_NEW&quot;&gt;\nhttp://ultraimg.com/images/3mT4H.png&lt;/a&gt; &lt;a href=&quot;\nhttp://ultraimg.com/images/Q1I0y.png&quot; rel=&quot;nofollow&quot; target=&quot;_NEW&quot;&gt;\nhttp://ultraimg.com/images/Q1I0y.png&lt;/a&gt; &lt;a href=&quot;\nhttp://ultraimg.com/images/mNz1v.png&quot; rel=&quot;nofollow&quot; target=&quot;_NEW&quot;&gt;\nhttp://ultraimg.com/images/mNz1v.png&lt;/a&gt; &lt;a href=&quot;\nhttp://ultraimg.com/images/gT7MA.png&quot; rel=&quot;nofollow&quot; target=&quot;_NEW&quot;&gt;\nhttp://ultraimg.com/images/gT7MA.png&lt;/a&gt; &lt;a href=&quot;\nhttp://ultraimg.com/images/hYIlp.png&quot; rel=&quot;nofollow&quot; target=&quot;_NEW&quot;&gt;\nhttp://ultraimg.com/images/hYIlp.png&lt;/a&gt;\n\n----------------------------------------------------------------------------------------------------\n\n\nRecommend to you to use latest version of VLC player. Install K-Lite Codec Pack or shark007 codecs\nin case of any kind of problem in playback (For non-VLC Media Player users). Alternatively, install\nCore AVC codecs, the fastest decoder that there is coupled with Community Center Codec Pack and play\non Windows Media Player Classic. Check sample to be sure.\nEnjoy!\n\nEncoder Notes:Looking For Early Access To Anything You Can Provide DVDScr, R5, DVDR, BluRay, Direct\nAudio, Music Releases and Seedboxes. We require dedicated servers, so as to do more \nand fast releases of movies.\nIf You Got anything to offer please contact us at &quot;&lt;a class=&quot;__cf_email__&quot; href=&quot;/cdn-cgi/l/email-protection&quot; data-cfemail=&quot;78080a1f38100d0b10561b1715&quot;&gt;[email&amp;#160;protected]&lt;/a&gt;&lt;script cf-hash='f9e31' type=&quot;text/javascript&quot;&gt;\n/* &lt;![CDATA[ */!function(){try{var t=&quot;currentScript&quot;in document?document.currentScript:function(){for(var t=document.getElementsByTagName(&quot;script&quot;),e=t.length;e--;)if(t[e].getAttribute(&quot;cf-hash&quot;))return t[e]}();if(t&amp;&amp;t.previousSibling){var e,r,n,i,c=t.previousSibling,a=c.getAttribute(&quot;data-cfemail&quot;);if(a){for(e=&quot;&quot;,r=parseInt(a.substr(0,2),16),n=2;a.length-n;n+=2)i=parseInt(a.substr(n,2),16)^r,e+=String.fromCharCode(i);e=document.createTextNode(e),c.parentNode.replaceChild(e,c)}}}catch(u){}}();/* ]]&gt; */&lt;/script&gt;&quot;.\n\nFace book Fan Page:  \nSearch P2PDL on FB and hit like!!!\n\nFor more of our team uploads visit @                                        &lt;a href=&quot;\nhttp://thepiratebay.se/user/vitamin_x&quot; rel=&quot;nofollow&quot; target=&quot;_NEW&quot;&gt;\nhttp://thepiratebay.se/user/vitamin_x&lt;/a&gt;\t","torrent":{"xt":"urn:btih:1257fb2fb6335ef54ff29e06f088b8202a8743d8","amp;dn":"Bajatey+Raho+2013+DVDRip+x264+Hindi+ESubs+-+ViZNU+%5BP2PDL%5D","amp;tr":["udp%3A%2F%2Ftracker.openbittorrent.com%3A80","udp%3A%2F%2Fopen.demonii.com%3A1337","udp%3A%2F%2Ftracker.coppersurfer.tk%3A6969","udp%3A%2F%2Fexodus.desync.com%3A6969"],"infoHash":"1257fb2fb6335ef54ff29e06f088b8202a8743d8","infoHashBuffer":{"type":"Buffer","data":[18,87,251,47,182,51,94,245,79,242,158,6,240,136,184,32,42,135,67,216]},"announce":[],"urlList":[]}}